<?xml version="1.0" standalone="no"?>
<!DOCTYPE svg PUBLIC "-//W3C//DTD SVG 20010904//EN"
 "http://www.w3.org/TR/2001/REC-SVG-20010904/DTD/svg10.dtd">
<svg version="1.0" xmlns="http://www.w3.org/2000/svg"
 width="500.000000pt" height="232.000000pt" viewBox="0 0 320.000000 180.000000"
 preserveAspectRatio="xMidYMid meet">

<g transform="translate(0.000000,232.000000) scale(0.100000,-0.100000)"
fill="#000000" stroke="none">
<path d="M1557 1843 c-4 -3 -7 -363 -7 -800 l0 -793 800 0 c633 0 800 3 801
13 0 12 0 1552 -1 1575 0 9 -166 12 -793 12 -437 0 -797 -3 -800 -7z m1411
-795 l2 -608 -615 0 -615 0 0 610 0 610 613 -2 612 -3 3 -607z"/>
<path d="M2283 1362 l-243 -2 0 -315 0 -315 315 0 315 0 0 314 0 314 -72 4
c-40 2 -182 2 -315 0z"/>
<path d="M1142 1143 l3 -618 172 -3 173 -2 5 23 c3 12 5 52 3 87 l-3 65 -88 3
-87 3 2 442 3 442 80 3 c44 2 82 7 85 13 9 14 12 97 5 130 l-7 29 -174 0 -174
0 2 -617z"/>
<path d="M807 1673 c-4 -3 -7 -201 -7 -440 l0 -433 140 0 140 0 0 84 0 85 -52
3 -53 3 -3 245 c-1 135 0 255 3 268 5 19 12 22 55 22 l50 0 0 85 0 85 -133 0
c-74 0 -137 -3 -140 -7z"/>
</g>
</svg>
