<?xml version="1.0" standalone="no"?>
<!DOCTYPE svg PUBLIC "-//W3C//DTD SVG 20010904//EN"
 "http://www.w3.org/TR/2001/REC-SVG-20010904/DTD/svg10.dtd">
<svg version="1.0" xmlns="http://www.w3.org/2000/svg"
 width="500pt" height="300pt" viewBox="0 0 120 30"
 preserveAspectRatio="xMidYMid meet">

<g transform="translate(0.000000,76.000000) scale(0.100000,-0.100000)"
fill="#000000" stroke="none">
<path d="M890 598 c0 -2 -14 -81 -30 -176 -17 -96 -30 -176 -30 -178 0 -2 9
-4 20 -4 12 0 21 8 24 23 3 12 10 48 16 79 14 72 55 121 97 116 27 -3 28 -5
28 -58 -1 -30 -5 -79 -9 -107 -8 -49 -7 -53 12 -53 17 0 22 10 31 63 25 150
25 143 -2 171 -33 33 -67 33 -108 -1 l-32 -27 6 34 c21 115 21 120 -2 120 -11
0 -21 -1 -21 -2z"/>
<path d="M1307 578 c-3 -13 -16 -82 -28 -155 -21 -124 -21 -133 -5 -157 13
-21 25 -26 56 -26 34 0 40 3 40 21 0 15 -5 19 -19 14 -15 -4 -51 16 -51 28 0
1 11 65 25 141 30 167 29 156 6 156 -11 0 -21 -9 -24 -22z"/>
<path d="M150 560 c0 -17 7 -20 51 -20 50 0 51 0 45 -27 -3 -16 -12 -71 -21
-123 -9 -52 -18 -108 -21 -123 -5 -26 -3 -28 18 -25 22 3 24 12 48 151 l24
147 52 0 c43 0 53 3 57 20 5 19 0 20 -124 20 -122 0 -129 -1 -129 -20z"/>
<path d="M432 483 c-48 -23 -76 -83 -69 -147 6 -67 38 -96 107 -96 61 0 80 7
80 31 0 16 -4 18 -27 12 -49 -13 -86 -7 -106 18 l-19 24 23 3 c94 10 113 16
135 37 32 32 32 78 -1 110 -29 30 -74 32 -123 8z m96 -35 c35 -35 -7 -78 -75
-78 -37 0 -43 3 -43 20 0 49 85 91 118 58z"/>
<path d="M674 481 c-66 -40 -86 -153 -38 -211 25 -29 30 -31 83 -28 43 2 57 7
59 20 3 14 -5 16 -43 15 -63 -3 -89 27 -82 93 7 63 44 94 103 86 49 -6 68 9
39 31 -27 19 -85 16 -121 -6z"/>
<path d="M1472 484 c-62 -32 -90 -129 -57 -194 20 -39 43 -50 103 -50 81 0
132 58 132 150 0 85 -96 136 -178 94z m109 -43 c32 -25 34 -98 4 -131 -69 -76
-166 -19 -136 80 20 67 83 91 132 51z"/>
<path d="M1770 482 c-52 -28 -80 -75 -80 -134 0 -41 5 -54 29 -79 35 -34 68
-37 105 -8 26 20 26 20 26 0 0 -34 -18 -69 -44 -86 -23 -15 -27 -15 -61 1 -28
13 -39 14 -48 5 -20 -20 27 -51 78 -51 51 0 89 27 104 73 20 63 51 271 41 281
-19 19 -113 18 -150 -2z m110 -37 c0 -42 -24 -117 -45 -139 -50 -54 -114 -15
-102 62 9 52 55 92 107 92 28 0 40 -4 40 -15z"/>
</g>
</svg>
